<mxfile host="app.diagrams.net" modified="2022-03-11T01:10:48.118Z" agent="5.0 (Windows NT 6.1; Win64; x64) AppleWebKit/537.36 (KHTML, like Gecko) Chrome/99.0.4844.51 Safari/537.36" etag="XZUvKWrhn0H_pHFT2DKh" version="17.1.1" type="github">
  <diagram id="QJ_cgCcYb6dK1A3mDXE3" name="Page-1">
    <mxGraphModel dx="1014" dy="612" grid="1" gridSize="10" guides="1" tooltips="1" connect="1" arrows="1" fold="1" page="1" pageScale="1" pageWidth="827" pageHeight="1169" math="0" shadow="0">
      <root>
        <mxCell id="0" />
        <mxCell id="1" parent="0" />
        <mxCell id="6VQi2dMLtpDCOh_RjhRS-1" value="Warga" style="rounded=0;whiteSpace=wrap;html=1;" vertex="1" parent="1">
          <mxGeometry x="190" y="290" width="120" height="60" as="geometry" />
        </mxCell>
        <mxCell id="6VQi2dMLtpDCOh_RjhRS-2" value="Staff" style="rounded=0;whiteSpace=wrap;html=1;" vertex="1" parent="1">
          <mxGeometry x="550" y="290" width="120" height="60" as="geometry" />
        </mxCell>
        <mxCell id="6VQi2dMLtpDCOh_RjhRS-3" value="Keluhan" style="rounded=0;whiteSpace=wrap;html=1;" vertex="1" parent="1">
          <mxGeometry x="190" y="490" width="120" height="60" as="geometry" />
        </mxCell>
        <mxCell id="6VQi2dMLtpDCOh_RjhRS-4" value="Berita" style="rounded=0;whiteSpace=wrap;html=1;" vertex="1" parent="1">
          <mxGeometry x="550" y="490" width="120" height="60" as="geometry" />
        </mxCell>
        <mxCell id="6VQi2dMLtpDCOh_RjhRS-5" value="Nama" style="ellipse;whiteSpace=wrap;html=1;" vertex="1" parent="1">
          <mxGeometry x="10" y="295" width="90" height="50" as="geometry" />
        </mxCell>
        <mxCell id="6VQi2dMLtpDCOh_RjhRS-6" value="Status Ekonomi" style="ellipse;whiteSpace=wrap;html=1;" vertex="1" parent="1">
          <mxGeometry x="10" y="210" width="90" height="50" as="geometry" />
        </mxCell>
        <mxCell id="6VQi2dMLtpDCOh_RjhRS-7" value="Alamat" style="ellipse;whiteSpace=wrap;html=1;" vertex="1" parent="1">
          <mxGeometry x="100" y="150" width="90" height="50" as="geometry" />
        </mxCell>
        <mxCell id="6VQi2dMLtpDCOh_RjhRS-8" value="Status Keaktifan" style="ellipse;whiteSpace=wrap;html=1;" vertex="1" parent="1">
          <mxGeometry x="230" y="150" width="100" height="50" as="geometry" />
        </mxCell>
        <mxCell id="6VQi2dMLtpDCOh_RjhRS-9" value="Nama" style="ellipse;whiteSpace=wrap;html=1;" vertex="1" parent="1">
          <mxGeometry x="740" y="295" width="90" height="50" as="geometry" />
        </mxCell>
        <mxCell id="6VQi2dMLtpDCOh_RjhRS-10" value="Status Ekonomi" style="ellipse;whiteSpace=wrap;html=1;" vertex="1" parent="1">
          <mxGeometry x="740" y="210" width="90" height="50" as="geometry" />
        </mxCell>
        <mxCell id="6VQi2dMLtpDCOh_RjhRS-11" value="Alamat" style="ellipse;whiteSpace=wrap;html=1;" vertex="1" parent="1">
          <mxGeometry x="510" y="150" width="90" height="50" as="geometry" />
        </mxCell>
        <mxCell id="6VQi2dMLtpDCOh_RjhRS-12" value="Status Keaktifan" style="ellipse;whiteSpace=wrap;html=1;" vertex="1" parent="1">
          <mxGeometry x="640" y="150" width="100" height="50" as="geometry" />
        </mxCell>
        <mxCell id="6VQi2dMLtpDCOh_RjhRS-13" value="Jenis" style="ellipse;whiteSpace=wrap;html=1;" vertex="1" parent="1">
          <mxGeometry x="10" y="534" width="90" height="50" as="geometry" />
        </mxCell>
        <mxCell id="6VQi2dMLtpDCOh_RjhRS-14" value="Judul" style="ellipse;whiteSpace=wrap;html=1;" vertex="1" parent="1">
          <mxGeometry x="10" y="449" width="90" height="50" as="geometry" />
        </mxCell>
        <mxCell id="6VQi2dMLtpDCOh_RjhRS-15" value="Status Pengaju" style="ellipse;whiteSpace=wrap;html=1;" vertex="1" parent="1">
          <mxGeometry x="100" y="610" width="90" height="50" as="geometry" />
        </mxCell>
        <mxCell id="6VQi2dMLtpDCOh_RjhRS-16" value="Deskripsi" style="ellipse;whiteSpace=wrap;html=1;" vertex="1" parent="1">
          <mxGeometry x="240" y="610" width="100" height="50" as="geometry" />
        </mxCell>
        <mxCell id="6VQi2dMLtpDCOh_RjhRS-17" value="Judul" style="ellipse;whiteSpace=wrap;html=1;" vertex="1" parent="1">
          <mxGeometry x="10" y="449" width="90" height="50" as="geometry" />
        </mxCell>
        <mxCell id="6VQi2dMLtpDCOh_RjhRS-18" value="Jenis" style="ellipse;whiteSpace=wrap;html=1;" vertex="1" parent="1">
          <mxGeometry x="10" y="534" width="90" height="50" as="geometry" />
        </mxCell>
        <mxCell id="6VQi2dMLtpDCOh_RjhRS-19" value="Status Pengaju" style="ellipse;whiteSpace=wrap;html=1;" vertex="1" parent="1">
          <mxGeometry x="504" y="610" width="90" height="50" as="geometry" />
        </mxCell>
        <mxCell id="6VQi2dMLtpDCOh_RjhRS-20" value="Deskripsi" style="ellipse;whiteSpace=wrap;html=1;" vertex="1" parent="1">
          <mxGeometry x="644" y="610" width="100" height="50" as="geometry" />
        </mxCell>
        <mxCell id="6VQi2dMLtpDCOh_RjhRS-21" value="Judul" style="ellipse;whiteSpace=wrap;html=1;" vertex="1" parent="1">
          <mxGeometry x="744" y="449" width="90" height="50" as="geometry" />
        </mxCell>
        <mxCell id="6VQi2dMLtpDCOh_RjhRS-22" value="Jenis" style="ellipse;whiteSpace=wrap;html=1;" vertex="1" parent="1">
          <mxGeometry x="744" y="534" width="90" height="50" as="geometry" />
        </mxCell>
        <mxCell id="6VQi2dMLtpDCOh_RjhRS-23" value="" style="endArrow=none;html=1;rounded=0;" edge="1" parent="1" source="6VQi2dMLtpDCOh_RjhRS-1" target="6VQi2dMLtpDCOh_RjhRS-8">
          <mxGeometry width="50" height="50" relative="1" as="geometry">
            <mxPoint x="360" y="380" as="sourcePoint" />
            <mxPoint x="410" y="330" as="targetPoint" />
          </mxGeometry>
        </mxCell>
        <mxCell id="6VQi2dMLtpDCOh_RjhRS-25" value="" style="endArrow=none;html=1;rounded=0;" edge="1" parent="1" source="6VQi2dMLtpDCOh_RjhRS-2" target="6VQi2dMLtpDCOh_RjhRS-11">
          <mxGeometry width="50" height="50" relative="1" as="geometry">
            <mxPoint x="360" y="380" as="sourcePoint" />
            <mxPoint x="410" y="330" as="targetPoint" />
          </mxGeometry>
        </mxCell>
        <mxCell id="6VQi2dMLtpDCOh_RjhRS-26" value="" style="endArrow=none;html=1;rounded=0;" edge="1" parent="1" source="6VQi2dMLtpDCOh_RjhRS-1" target="6VQi2dMLtpDCOh_RjhRS-5">
          <mxGeometry width="50" height="50" relative="1" as="geometry">
            <mxPoint x="360" y="380" as="sourcePoint" />
            <mxPoint x="410" y="330" as="targetPoint" />
          </mxGeometry>
        </mxCell>
        <mxCell id="6VQi2dMLtpDCOh_RjhRS-27" value="" style="endArrow=none;html=1;rounded=0;" edge="1" parent="1" source="6VQi2dMLtpDCOh_RjhRS-1" target="6VQi2dMLtpDCOh_RjhRS-6">
          <mxGeometry width="50" height="50" relative="1" as="geometry">
            <mxPoint x="240" y="320" as="sourcePoint" />
            <mxPoint x="410" y="330" as="targetPoint" />
          </mxGeometry>
        </mxCell>
        <mxCell id="6VQi2dMLtpDCOh_RjhRS-28" value="" style="endArrow=none;html=1;rounded=0;" edge="1" parent="1" source="6VQi2dMLtpDCOh_RjhRS-1" target="6VQi2dMLtpDCOh_RjhRS-7">
          <mxGeometry width="50" height="50" relative="1" as="geometry">
            <mxPoint x="360" y="380" as="sourcePoint" />
            <mxPoint x="410" y="330" as="targetPoint" />
          </mxGeometry>
        </mxCell>
        <mxCell id="6VQi2dMLtpDCOh_RjhRS-30" value="" style="endArrow=none;html=1;rounded=0;" edge="1" parent="1" source="6VQi2dMLtpDCOh_RjhRS-4" target="6VQi2dMLtpDCOh_RjhRS-21">
          <mxGeometry width="50" height="50" relative="1" as="geometry">
            <mxPoint x="608.5882358455797" y="300" as="sourcePoint" />
            <mxPoint x="574.1540995655912" y="209.47726622973312" as="targetPoint" />
          </mxGeometry>
        </mxCell>
        <mxCell id="6VQi2dMLtpDCOh_RjhRS-31" value="" style="endArrow=none;html=1;rounded=0;" edge="1" parent="1" source="6VQi2dMLtpDCOh_RjhRS-4" target="6VQi2dMLtpDCOh_RjhRS-22">
          <mxGeometry width="50" height="50" relative="1" as="geometry">
            <mxPoint x="618.5882358455797" y="310" as="sourcePoint" />
            <mxPoint x="584.1540995655912" y="219.47726622973312" as="targetPoint" />
          </mxGeometry>
        </mxCell>
        <mxCell id="6VQi2dMLtpDCOh_RjhRS-32" value="" style="endArrow=none;html=1;rounded=0;" edge="1" parent="1" source="6VQi2dMLtpDCOh_RjhRS-2" target="6VQi2dMLtpDCOh_RjhRS-9">
          <mxGeometry width="50" height="50" relative="1" as="geometry">
            <mxPoint x="628.5882358455797" y="320" as="sourcePoint" />
            <mxPoint x="594.1540995655912" y="229.47726622973312" as="targetPoint" />
          </mxGeometry>
        </mxCell>
        <mxCell id="6VQi2dMLtpDCOh_RjhRS-33" value="" style="endArrow=none;html=1;rounded=0;" edge="1" parent="1" source="6VQi2dMLtpDCOh_RjhRS-2" target="6VQi2dMLtpDCOh_RjhRS-10">
          <mxGeometry width="50" height="50" relative="1" as="geometry">
            <mxPoint x="638.5882358455797" y="330" as="sourcePoint" />
            <mxPoint x="604.1540995655912" y="239.47726622973312" as="targetPoint" />
          </mxGeometry>
        </mxCell>
        <mxCell id="6VQi2dMLtpDCOh_RjhRS-34" value="" style="endArrow=none;html=1;rounded=0;" edge="1" parent="1" source="6VQi2dMLtpDCOh_RjhRS-2" target="6VQi2dMLtpDCOh_RjhRS-12">
          <mxGeometry width="50" height="50" relative="1" as="geometry">
            <mxPoint x="648.5882358455797" y="340" as="sourcePoint" />
            <mxPoint x="614.1540995655912" y="249.47726622973312" as="targetPoint" />
          </mxGeometry>
        </mxCell>
        <mxCell id="6VQi2dMLtpDCOh_RjhRS-36" value="" style="endArrow=none;html=1;rounded=0;" edge="1" parent="1" source="6VQi2dMLtpDCOh_RjhRS-4" target="6VQi2dMLtpDCOh_RjhRS-20">
          <mxGeometry width="50" height="50" relative="1" as="geometry">
            <mxPoint x="679.9999999999998" y="543.0867846044375" as="sourcePoint" />
            <mxPoint x="757.0867560274116" y="559.9004141375303" as="targetPoint" />
          </mxGeometry>
        </mxCell>
        <mxCell id="6VQi2dMLtpDCOh_RjhRS-37" value="" style="endArrow=none;html=1;rounded=0;" edge="1" parent="1" source="6VQi2dMLtpDCOh_RjhRS-4" target="6VQi2dMLtpDCOh_RjhRS-19">
          <mxGeometry width="50" height="50" relative="1" as="geometry">
            <mxPoint x="689.9999999999998" y="553.0867846044375" as="sourcePoint" />
            <mxPoint x="767.0867560274116" y="569.9004141375303" as="targetPoint" />
          </mxGeometry>
        </mxCell>
        <mxCell id="6VQi2dMLtpDCOh_RjhRS-38" value="" style="endArrow=none;html=1;rounded=0;" edge="1" parent="1" source="6VQi2dMLtpDCOh_RjhRS-3" target="6VQi2dMLtpDCOh_RjhRS-16">
          <mxGeometry width="50" height="50" relative="1" as="geometry">
            <mxPoint x="360" y="380" as="sourcePoint" />
            <mxPoint x="410" y="330" as="targetPoint" />
          </mxGeometry>
        </mxCell>
        <mxCell id="6VQi2dMLtpDCOh_RjhRS-39" value="" style="endArrow=none;html=1;rounded=0;" edge="1" parent="1" source="6VQi2dMLtpDCOh_RjhRS-3" target="6VQi2dMLtpDCOh_RjhRS-17">
          <mxGeometry width="50" height="50" relative="1" as="geometry">
            <mxPoint x="270.49713729996665" y="560" as="sourcePoint" />
            <mxPoint x="291.61528643529186" y="620.3540237643433" as="targetPoint" />
          </mxGeometry>
        </mxCell>
        <mxCell id="6VQi2dMLtpDCOh_RjhRS-40" value="" style="endArrow=none;html=1;rounded=0;" edge="1" parent="1" source="6VQi2dMLtpDCOh_RjhRS-3" target="6VQi2dMLtpDCOh_RjhRS-18">
          <mxGeometry width="50" height="50" relative="1" as="geometry">
            <mxPoint x="280.49713729996665" y="570" as="sourcePoint" />
            <mxPoint x="301.61528643529186" y="630.3540237643433" as="targetPoint" />
          </mxGeometry>
        </mxCell>
        <mxCell id="6VQi2dMLtpDCOh_RjhRS-41" value="" style="endArrow=none;html=1;rounded=0;" edge="1" parent="1" source="6VQi2dMLtpDCOh_RjhRS-3" target="6VQi2dMLtpDCOh_RjhRS-15">
          <mxGeometry width="50" height="50" relative="1" as="geometry">
            <mxPoint x="290.49713729996665" y="580" as="sourcePoint" />
            <mxPoint x="311.61528643529186" y="640.3540237643433" as="targetPoint" />
          </mxGeometry>
        </mxCell>
        <mxCell id="6VQi2dMLtpDCOh_RjhRS-51" style="edgeStyle=orthogonalEdgeStyle;rounded=0;orthogonalLoop=1;jettySize=auto;html=1;exitX=0;exitY=1;exitDx=0;exitDy=0;entryX=0.633;entryY=-0.033;entryDx=0;entryDy=0;entryPerimeter=0;" edge="1" parent="1" source="6VQi2dMLtpDCOh_RjhRS-42" target="6VQi2dMLtpDCOh_RjhRS-3">
          <mxGeometry relative="1" as="geometry" />
        </mxCell>
        <mxCell id="6VQi2dMLtpDCOh_RjhRS-42" value="Membuat Keluhan" style="rhombus;whiteSpace=wrap;html=1;" vertex="1" parent="1">
          <mxGeometry x="280" y="399" width="140" height="50" as="geometry" />
        </mxCell>
        <mxCell id="6VQi2dMLtpDCOh_RjhRS-50" style="edgeStyle=orthogonalEdgeStyle;rounded=0;orthogonalLoop=1;jettySize=auto;html=1;exitX=1;exitY=1;exitDx=0;exitDy=0;" edge="1" parent="1" source="6VQi2dMLtpDCOh_RjhRS-43" target="6VQi2dMLtpDCOh_RjhRS-4">
          <mxGeometry relative="1" as="geometry" />
        </mxCell>
        <mxCell id="6VQi2dMLtpDCOh_RjhRS-43" value="Membuat Berita" style="rhombus;whiteSpace=wrap;html=1;" vertex="1" parent="1">
          <mxGeometry x="454" y="399" width="140" height="50" as="geometry" />
        </mxCell>
        <mxCell id="6VQi2dMLtpDCOh_RjhRS-45" value="Menytetujui Berita" style="rhombus;whiteSpace=wrap;html=1;" vertex="1" parent="1">
          <mxGeometry x="624" y="399" width="140" height="50" as="geometry" />
        </mxCell>
        <mxCell id="6VQi2dMLtpDCOh_RjhRS-46" value="" style="endArrow=none;html=1;rounded=0;" edge="1" parent="1" source="6VQi2dMLtpDCOh_RjhRS-42" target="6VQi2dMLtpDCOh_RjhRS-1">
          <mxGeometry width="50" height="50" relative="1" as="geometry">
            <mxPoint x="410" y="340" as="sourcePoint" />
            <mxPoint x="460" y="290" as="targetPoint" />
          </mxGeometry>
        </mxCell>
        <mxCell id="6VQi2dMLtpDCOh_RjhRS-47" value="" style="endArrow=none;html=1;rounded=0;" edge="1" parent="1" source="6VQi2dMLtpDCOh_RjhRS-43" target="6VQi2dMLtpDCOh_RjhRS-2">
          <mxGeometry width="50" height="50" relative="1" as="geometry">
            <mxPoint x="342.1063394683026" y="415.3905930470347" as="sourcePoint" />
            <mxPoint x="288.84615384615404" y="360" as="targetPoint" />
          </mxGeometry>
        </mxCell>
        <mxCell id="6VQi2dMLtpDCOh_RjhRS-48" value="" style="endArrow=none;html=1;rounded=0;" edge="1" parent="1" source="6VQi2dMLtpDCOh_RjhRS-45" target="6VQi2dMLtpDCOh_RjhRS-2">
          <mxGeometry width="50" height="50" relative="1" as="geometry">
            <mxPoint x="549.9597030752916" y="414.69989395546133" as="sourcePoint" />
            <mxPoint x="595.1923076923076" y="360" as="targetPoint" />
          </mxGeometry>
        </mxCell>
        <mxCell id="6VQi2dMLtpDCOh_RjhRS-49" value="" style="endArrow=none;html=1;rounded=0;" edge="1" parent="1" source="6VQi2dMLtpDCOh_RjhRS-43" target="6VQi2dMLtpDCOh_RjhRS-1">
          <mxGeometry width="50" height="50" relative="1" as="geometry">
            <mxPoint x="342.1063394683026" y="415.3905930470347" as="sourcePoint" />
            <mxPoint x="288.84615384615404" y="360" as="targetPoint" />
          </mxGeometry>
        </mxCell>
      </root>
    </mxGraphModel>
  </diagram>
</mxfile>
